PathFileType	4	(X/Y/Z)	 2.8Hzlow3min.trc
DataRate	CameraRate	NumFrames	NumMarkers	Units	OrigDataRate	OrigDataStartFrame	OrigNumFrames
200	200	10	35	m	200	501	1000
Frame#	Time	C7			LSH			RSH			MAN			RASI			LASI			HIPR			HIPL			RPSI			LPSI			COX			RTHI1			RTHI2			RTHI3			RTHI4			RSHA1			RSHA2			RSHA3			RSHA4			RHEEL			RMET5			RMET1			RTOE			LTHI1			LTHI2			LTHI3			LTHI4			LSHA1			LSHA2			LSHA3			LSHA4			LHEEL			LMET5			LMET1			LTOE			
		X1	Y1	Z1	X2	Y2	Z2	X3	Y3	Z3	X4	Y4	Z4	X5	Y5	Z5	X6	Y6	Z6	X7	Y7	Z7	X8	Y8	Z8	X9	Y9	Z9	X10	Y10	Z10	X11	Y11	Z11	X12	Y12	Z12	X13	Y13	Z13	X14	Y14	Z14	X15	Y15	Z15	X16	Y16	Z16	X17	Y17	Z17	X18	Y18	Z18	X19	Y19	Z19	X20	Y20	Z20	X21	Y21	Z21	X22	Y22	Z22	X23	Y23	Z23	X24	Y24	Z24	X25	Y25	Z25	X26	Y26	Z26	X27	Y27	Z27	X28	Y28	Z28	X29	Y29	Z29	X30	Y30	Z30	X31	Y31	Z31	X32	Y32	Z32	X33	Y33	Z33	X34	Y34	Z34	X35	Y35	Z35	
501	2.5050	-0.318618	1.632898	-0.506559	-0.302062	1.620893	-0.725859	-0.247707	1.622409	-0.317534	-0.168101	1.566891	-0.526566	-0.160505	1.120834	-0.408865	-0.158833	1.113601	-0.626984	-0.217855	1.169329	-0.359329	-0.228743	1.166374	-0.683992	-0.346072	1.147657	-0.458540	-0.352753	1.140833	-0.572125	-0.356258	1.151996	-0.511966	-0.251553	0.870229	-0.318345	-0.237900	0.813639	-0.305210	-0.173829	0.826623	-0.303873	-0.179735	0.885816	-0.318933	-0.340746	0.443060	-0.279184	-0.357592	0.403504	-0.283382	-0.299369	0.386044	-0.284479	-0.287131	0.424107	-0.284280	-0.464751	0.109241	-0.338196	-0.294539	0.028619	-0.270461	-0.254087	0.041657	-0.359595	-0.224538	0.030990	-0.359859	-0.239963	0.853876	-0.726596	-0.224547	0.794538	-0.733943	-0.161032	0.804907	-0.729353	-0.167395	0.864421	-0.721848	-0.322072	0.400655	-0.740452	-0.340829	0.364775	-0.738988	-0.283222	0.342655	-0.726288	-0.271420	0.385223	-0.729828	-0.476149	0.099038	-0.672446	-0.311805	0.029212	-0.757082	-0.254194	0.036186	-0.678716	-0.226590	0.027976	-0.686396	
502	2.5100	-0.318898	1.636352	-0.506818	-0.302436	1.624654	-0.725972	-0.248262	1.626369	-0.317891	-0.168444	1.570982	-0.526702	-0.159718	1.124759	-0.408852	-0.158009	1.117543	-0.626939	-0.216739	1.173544	-0.359482	-0.227898	1.170449	-0.683909	-0.345231	1.151566	-0.458323	-0.351952	1.144780	-0.572006	-0.355495	1.155863	-0.511795	-0.251462	0.873949	-0.317980	-0.237886	0.817316	-0.304865	-0.173756	0.830136	-0.303460	-0.179515	0.889365	-0.318609	-0.340971	0.446344	-0.278945	-0.357683	0.406738	-0.283196	-0.299370	0.389419	-0.283860	-0.287315	0.427584	-0.283572	-0.463024	0.112452	-0.337846	-0.294139	0.028937	-0.270771	-0.253955	0.041729	-0.359474	-0.224491	0.031079	-0.359816	-0.239890	0.857762	-0.726707	-0.224708	0.798377	-0.734123	-0.161154	0.808502	-0.729570	-0.167287	0.868014	-0.721980	-0.322598	0.404074	-0.740560	-0.341170	0.368073	-0.739102	-0.283385	0.346236	-0.726726	-0.271824	0.388853	-0.730207	-0.474790	0.102157	-0.672761	-0.311473	0.029594	-0.756788	-0.254058	0.036161	-0.678769	-0.226566	0.027991	-0.686385	
503	2.5150	-0.319130	1.639797	-0.507060	-0.302803	1.628417	-0.726055	-0.248810	1.630333	-0.318246	-0.168786	1.575101	-0.526821	-0.158931	1.128690	-0.408849	-0.157217	1.121463	-0.626890	-0.215617	1.177790	-0.359618	-0.227085	1.174524	-0.683820	-0.344386	1.155547	-0.458097	-0.351150	1.148799	-0.571899	-0.354735	1.159821	-0.511617	-0.251432	0.877700	-0.317549	-0.237916	0.820997	-0.304544	-0.173723	0.833649	-0.303030	-0.179328	0.892931	-0.318263	-0.341157	0.449583	-0.278703	-0.357722	0.409927	-0.283005	-0.299317	0.392784	-0.283249	-0.287473	0.431056	-0.282837	-0.461228	0.115630	-0.337444	-0.293686	0.029357	-0.271112	-0.253817	0.041813	-0.359361	-0.224426	0.031207	-0.359746	-0.239847	0.861683	-0.726826	-0.224901	0.802263	-0.734333	-0.161311	0.812134	-0.729819	-0.167210	0.871639	-0.722130	-0.323088	0.407510	-0.740676	-0.341467	0.371392	-0.739219	-0.283499	0.349839	-0.727185	-0.272182	0.392524	-0.730616	-0.473357	0.105299	-0.673079	-0.311124	0.030020	-0.756543	-0.253919	0.036137	-0.678826	-0.226547	0.028007	-0.686376	
504	2.5200	-0.319356	1.643266	-0.507297	-0.303164	1.632163	-0.726105	-0.249338	1.634277	-0.318588	-0.169120	1.579188	-0.526916	-0.158149	1.132599	-0.408848	-0.156457	1.125342	-0.626837	-0.214505	1.182051	-0.359730	-0.226299	1.178586	-0.683728	-0.343547	1.159570	-0.457862	-0.350354	1.152873	-0.571801	-0.354000	1.163865	-0.511443	-0.251413	0.881481	-0.317155	-0.237980	0.824665	-0.304238	-0.173724	0.837151	-0.302595	-0.179181	0.896479	-0.317903	-0.341296	0.452754	-0.278467	-0.357699	0.413035	-0.282828	-0.299203	0.396101	-0.282657	-0.287577	0.434474	-0.282126	-0.459352	0.118745	-0.337022	-0.293161	0.029911	-0.271487	-0.253660	0.041922	-0.359260	-0.224342	0.031385	-0.359634	-0.239830	0.865611	-0.726950	-0.225113	0.806158	-0.734559	-0.161488	0.815783	-0.730088	-0.167156	0.875278	-0.722298	-0.323538	0.410941	-0.740800	-0.341711	0.374709	-0.739337	-0.283559	0.353447	-0.727653	-0.272490	0.396197	-0.731039	-0.471858	0.108445	-0.673399	-0.310754	0.030500	-0.756340	-0.253785	0.036114	-0.678885	-0.226533	0.028021	-0.686371	
505	2.5250	-0.319576	1.646729	-0.507525	-0.303527	1.635857	-0.726127	-0.249841	1.638169	-0.318910	-0.169458	1.583229	-0.526993	-0.157381	1.136459	-0.408850	-0.155743	1.129153	-0.626776	-0.213423	1.186302	-0.359804	-0.225547	1.182621	-0.683633	-0.342727	1.163607	-0.457623	-0.349573	1.156975	-0.571697	-0.353281	1.167958	-0.511272	-0.251408	0.885258	-0.316787	-0.238078	0.828296	-0.303957	-0.173773	0.840612	-0.302165	-0.179067	0.899983	-0.317534	-0.341377	0.455828	-0.278237	-0.357604	0.416045	-0.282651	-0.299025	0.399337	-0.282089	-0.287593	0.437787	-0.281484	-0.457426	0.121781	-0.336554	-0.292547	0.030616	-0.271891	-0.253489	0.042062	-0.359158	-0.224236	0.031630	-0.359474	-0.239834	0.869520	-0.727068	-0.225331	0.810035	-0.734795	-0.161677	0.819427	-0.730372	-0.167120	0.878912	-0.722474	-0.323935	0.414331	-0.740925	-0.341892	0.377995	-0.739448	-0.283556	0.357025	-0.728120	-0.272743	0.399846	-0.731468	-0.470306	0.111565	-0.673690	-0.310360	0.031043	-0.756165	-0.253674	0.036106	-0.678951	-0.226526	0.028037	-0.686375	
506	2.5300	-0.319784	1.650159	-0.507746	-0.303865	1.639496	-0.726126	-0.250309	1.641987	-0.319219	-0.169795	1.587203	-0.527055	-0.156636	1.140244	-0.408846	-0.155075	1.132879	-0.626710	-0.212377	1.190510	-0.359851	-0.224830	1.186605	-0.683530	-0.341928	1.167635	-0.457390	-0.348809	1.161067	-0.571602	-0.352570	1.172062	-0.511105	-0.251381	0.888960	-0.316513	-0.238206	0.831864	-0.303701	-0.173863	0.844019	-0.301746	-0.178984	0.903415	-0.317168	-0.341385	0.458790	-0.277983	-0.357430	0.418942	-0.282472	-0.298786	0.402482	-0.281547	-0.287505	0.440971	-0.280907	-0.455491	0.124707	-0.335984	-0.291827	0.031509	-0.272331	-0.253303	0.042282	-0.359067	-0.224112	0.031949	-0.359247	-0.239850	0.873382	-0.727180	-0.225547	0.813869	-0.735032	-0.161860	0.823043	-0.730659	-0.167098	0.882521	-0.722648	-0.324269	0.417664	-0.741043	-0.342008	0.381222	-0.739543	-0.283493	0.360559	-0.728583	-0.272934	0.403448	-0.731893	-0.468712	0.114625	-0.673960	-0.309934	0.031658	-0.755994	-0.253579	0.036116	-0.679023	-0.226522	0.028053	-0.686390	
507	2.5350	-0.319982	1.653527	-0.507956	-0.304168	1.643045	-0.726084	-0.250751	1.645749	-0.319524	-0.170115	1.591079	-0.527092	-0.155921	1.143931	-0.408833	-0.154461	1.136497	-0.626639	-0.211382	1.194646	-0.359876	-0.224143	1.190521	-0.683424	-0.341165	1.171618	-0.457161	-0.348071	1.165129	-0.571528	-0.351891	1.176154	-0.510962	-0.251326	0.892589	-0.316383	-0.238360	0.835359	-0.303482	-0.173986	0.847339	-0.301349	-0.178934	0.906750	-0.316808	-0.341319	0.461614	-0.277733	-0.357173	0.421691	-0.282287	-0.298495	0.405509	-0.281033	-0.287326	0.444003	-0.280423	-0.453570	0.127509	-0.335376	-0.291005	0.032588	-0.272801	-0.253100	0.042594	-0.358964	-0.223966	0.032353	-0.358941	-0.239870	0.877171	-0.727280	-0.225746	0.817639	-0.735269	-0.162026	0.826606	-0.730944	-0.167082	0.886081	-0.722815	-0.324538	0.420912	-0.741146	-0.342054	0.384365	-0.739622	-0.283365	0.364009	-0.729032	-0.273059	0.406980	-0.732304	-0.467085	0.117604	-0.674194	-0.309472	0.032345	-0.755794	-0.253470	0.036143	-0.679106	-0.226515	0.028075	-0.686419	
508	2.5400	-0.320166	1.656805	-0.508153	-0.304442	1.646500	-0.726015	-0.251161	1.649430	-0.319827	-0.170424	1.594820	-0.527124	-0.155244	1.147498	-0.408807	-0.153906	1.139994	-0.626562	-0.210459	1.198673	-0.359883	-0.223492	1.194348	-0.683314	-0.340447	1.175521	-0.456938	-0.347368	1.169110	-0.571443	-0.351213	1.180173	-0.510794	-0.251189	0.896058	-0.316524	-0.238540	0.838743	-0.303303	-0.174137	0.850554	-0.300985	-0.178908	0.909969	-0.316469	-0.341173	0.464275	-0.277492	-0.356831	0.424283	-0.282105	-0.298135	0.408387	-0.280568	-0.287059	0.446876	-0.280015	-0.451682	0.130169	-0.334753	-0.290097	0.033850	-0.273305	-0.252878	0.043015	-0.358840	-0.223796	0.032853	-0.358551	-0.239882	0.880860	-0.727370	-0.225916	0.821304	-0.735491	-0.162163	0.830096	-0.731221	-0.167067	0.889572	-0.722972	-0.324730	0.424058	-0.741229	-0.342023	0.387405	-0.739681	-0.283165	0.367358	-0.729459	-0.273117	0.410391	-0.732682	-0.465441	0.120481	-0.674400	-0.308978	0.033112	-0.755541	-0.253340	0.036204	-0.679187	-0.226500	0.028110	-0.686462	
509	2.5450	-0.320313	1.659946	-0.508329	-0.304685	1.649829	-0.725922	-0.251532	1.653007	-0.320132	-0.170720	1.598421	-0.527153	-0.154615	1.150923	-0.408765	-0.153414	1.143350	-0.626477	-0.209623	1.202550	-0.359882	-0.222880	1.198063	-0.683193	-0.339779	1.179321	-0.456727	-0.346708	1.172986	-0.571359	-0.350561	1.184102	-0.510621	-0.251063	0.899302	-0.316754	-0.238746	0.841973	-0.303175	-0.174312	0.853623	-0.300661	-0.178903	0.913053	-0.316159	-0.340941	0.466761	-0.277249	-0.356399	0.426698	-0.281905	-0.297689	0.411085	-0.280171	-0.286709	0.449582	-0.279675	-0.449914	0.132666	-0.334057	-0.289138	0.035267	-0.273835	-0.252633	0.043552	-0.358691	-0.223589	0.033455	-0.358078	-0.239882	0.884420	-0.727449	-0.226052	0.824847	-0.735698	-0.162267	0.833489	-0.731484	-0.167045	0.892968	-0.723111	-0.324835	0.427066	-0.741286	-0.341911	0.390312	-0.739721	-0.282891	0.370573	-0.729854	-0.273098	0.413667	-0.733028	-0.463794	0.123245	-0.674580	-0.308457	0.033948	-0.755215	-0.253192	0.036304	-0.679259	-0.226471	0.028164	-0.686524	
510	2.5500	-0.320422	1.662936	-0.508487	-0.304893	1.653021	-0.725792	-0.251852	1.656462	-0.320436	-0.170982	1.601861	-0.527176	-0.154039	1.154186	-0.408707	-0.152966	1.146553	-0.626387	-0.208880	1.206238	-0.359882	-0.222309	1.201638	-0.683068	-0.339164	1.182989	-0.456533	-0.346102	1.176720	-0.571282	-0.349948	1.187908	-0.510457	-0.250917	0.902301	-0.317125	-0.238966	0.845024	-0.303098	-0.174495	0.856540	-0.300380	-0.178918	0.915977	-0.315883	-0.340619	0.469053	-0.277014	-0.355883	0.428912	-0.281713	-0.297147	0.413589	-0.279868	-0.286292	0.452118	-0.279398	-0.448247	0.134998	-0.333383	-0.288158	0.036807	-0.274379	-0.252351	0.044205	-0.358508	-0.223336	0.034152	-0.357500	-0.239863	0.887824	-0.727517	-0.226148	0.828238	-0.735886	-0.162335	0.836755	-0.731721	-0.167012	0.896239	-0.723230	-0.324846	0.429923	-0.741322	-0.341710	0.393069	-0.739744	-0.282538	0.373630	-0.730217	-0.272993	0.416789	-0.733335	-0.462157	0.125875	-0.674742	-0.307918	0.034841	-0.754805	-0.253010	0.036424	-0.679318	-0.226426	0.028247	-0.686611	
